<svg xmlns="http://www.w3.org/2000/svg" viewBox="0 -0.5 210 42" shape-rendering="crispEdges">
<metadata>Logo PixelBot (NE PAS REPRODUIRE) | Convertit en SVG avec https://codepen.io/shshaw/pen/XbxvNj</metadata>
<path stroke="rgba(255,255,0,0.00392156862745098)" d="M16 2h1M31 3h1M9 6h1M8 7h1M40 12h1M5 31h1M37 34h1M36 35h1M12 38h1M14 39h1" />
<path stroke="rgba(255,195,0,0.06666666666666667)" d="M17 2h1M36 7h1" />
<path stroke="rgba(255,195,0,0.1843137254901961)" d="M18 2h1M41 25h1M40 28h1" />
<path stroke="rgba(255,193,0,0.27450980392156865)" d="M19 2h1" />
<path stroke="rgba(255,191,0,0.36470588235294116)" d="M20 2h1M41 23h1" />
<path stroke="rgba(254,192,0,0.41568627450980394)" d="M21 2h1M38 31h1" />
<path stroke="rgba(255,192,0,0.43529411764705883)" d="M22 2h1" />
<path stroke="rgba(254,191,0,0.4235294117647059)" d="M23 2h1M16 3h1" />
<path stroke="rgba(255,193,0,0.38823529411764707)" d="M24 2h1M41 19h1" />
<path stroke="rgba(255,191,0,0.3137254901960784)" d="M25 2h1M31 4h1M5 13h1" />
<path stroke="rgba(255,194,0,0.23137254901960785)" d="M26 2h1M41 17h1M4 26h1" />
<path stroke="rgba(255,191,0,0.12549019607843137)" d="M27 2h1M4 15h1" />
<path stroke="rgba(255,204,0,0.0196078431372549)" d="M28 2h1M32 4h1M6 32h1M11 37h1" />
<path stroke="rgba(255,255,0,0.011764705882352941)" d="M14 3h1M4 13h1M30 39h1" />
<path stroke="rgba(255,192,0,0.17647058823529413)" d="M15 3h1" />
<path stroke="rgba(254,191,0,0.6588235294117647)" d="M17 3h1" />
<path stroke="rgba(254,191,0,0.7764705882352941)" d="M18 3h1M40 25h1" />
<path stroke="rgba(254,191,0,0.8549019607843137)" d="M19 3h1M15 4h1M39 28h1" />
<path stroke="rgba(254,191,0,0.9294117647058824)" d="M20 3h1M6 13h1M40 23h1" />
<path stroke="rgba(254,191,0,0.9725490196078431)" d="M21 3h1M28 4h1M39 15h1M37 31h1M9 33h1M10 34h1" />
<path stroke="rgba(255,191,0,0.9921568627450981)" d="M22 3h1M17 4h1M14 5h1M11 7h1M38 29h1M8 31h1M12 35h1" />
<path stroke="rgba(255,191,0,0.9803921568627451)" d="M23 3h1M31 5h1M38 12h1M40 20h1M5 26h1" />
<path stroke="rgba(254,192,0,0.9529411764705882)" d="M24 3h1" />
<path stroke="rgba(254,191,0,0.8862745098039215)" d="M25 3h1M34 7h1M35 8h1M7 11h1" />
<path stroke="rgba(254,191,0,0.8156862745098039)" d="M26 3h1M40 17h1" />
<path stroke="rgba(255,191,0,0.7254901960784313)" d="M27 3h1" />
<path stroke="rgba(254,191,0,0.5529411764705883)" d="M28 3h1" />
<path stroke="rgba(255,192,0,0.2901960784313726)" d="M29 3h1" />
<path stroke="rgba(254,201,0,0.07450980392156863)" d="M30 3h1M4 27h1" />
<path stroke="rgba(255,255,0,0.00784313725490196)" d="M12 4h1M5 11h1M41 27h1M39 31h1M32 38h1" />
<path stroke="rgba(255,192,0,0.1607843137254902)" d="M13 4h1" />
<path stroke="rgba(255,192,0,0.5725490196078431)" d="M14 4h1" />
<path stroke="rgba(254,191,0,0.9333333333333333)" d="M16 4h1M21 39h1" />
<path stroke="#ffbf00" d="M18 4h10M15 5h15M13 6h20M12 7h22M11 8h24M10 9h26M9 10h28M8 11h30M7 12h2M19 12h8M37 12h1M7 13h2M19 13h8M37 13h1M6 14h3M19 14h8M37 14h2M6 15h3M19 15h8M37 15h2M6 16h3M19 16h8M37 16h3M5 17h4M19 17h8M37 17h3M5 18h4M19 18h8M37 18h3M5 19h4M19 19h8M37 19h3M5 20h4M19 20h8M37 20h3M5 21h35M5 22h35M5 23h35M5 24h35M5 25h35M6 26h33M6 27h33M6 28h33M7 29h31M8 30h30M9 31h28M9 32h27M10 33h25M11 34h23M13 35h20M14 36h18M15 37h15M18 38h9" />
<path stroke="rgba(254,192,0,0.8901960784313725)" d="M29 4h1M40 18h1M11 35h1M32 36h1" />
<path stroke="rgba(254,191,0,0.7215686274509804)" d="M30 4h1M40 16h1" />
<path stroke="rgba(254,208,0,0.043137254901960784)" d="M11 5h1M29 39h1" />
<path stroke="rgba(254,193,0,0.403921568627451)" d="M12 5h1" />
<path stroke="rgba(255,191,0,0.8784313725490196)" d="M13 5h1M38 30h1" />
<path stroke="rgba(254,191,0,0.996078431372549)" d="M30 5h1M10 8h1M38 13h1M5 16h1M39 26h1M36 32h1M35 33h1M27 38h1" />
<path stroke="rgba(254,192,0,0.7019607843137254)" d="M32 5h1" />
<path stroke="rgba(254,197,0,0.12156862745098039)" d="M33 5h1M10 6h1M38 10h1M41 16h1" />
<path stroke="rgba(254,192,0,0.592156862745098)" d="M11 6h1M39 29h1" />
<path stroke="rgba(254,192,0,0.9686274509803922)" d="M12 6h1M4 21h1M40 22h1" />
<path stroke="rgba(254,191,0,0.8627450980392157)" d="M33 6h1" />
<path stroke="rgba(255,191,0,0.32941176470588235)" d="M34 6h1M32 37h1" />
<path stroke="rgba(255,204,0,0.0392156862745098)" d="M35 6h1M37 8h1M4 14h1" />
<path stroke="rgba(191,191,191,0.06274509803921569)" d="M72 6h1M79 6h1M131 6h1M138 6h1M63 7h1M72 7h1M79 7h1M131 7h1M138 7h1M72 8h1M79 8h1M131 8h1M138 8h1M66 9h1M72 9h1M79 9h1M131 9h1M138 9h1M72 10h1M79 10h1M131 10h1M138 10h1M72 11h1M79 11h1M131 11h1M138 11h1M131 12h1M138 12h1M131 13h1M138 13h1M72 14h1M79 14h1M131 14h1M138 14h1M72 15h1M79 15h1M123 15h1M131 15h1M138 15h1M72 16h1M79 16h1M131 16h1M138 16h1M72 17h1M79 17h1M131 17h1M138 17h1M72 18h1M79 18h1M131 18h1M138 18h1M72 19h1M79 19h1M131 19h1M138 19h1M72 20h1M79 20h1M131 20h1M138 20h1M72 21h1M79 21h1M131 21h1M138 21h1M72 22h1M79 22h1M131 22h1M138 22h1M155 22h1M63 23h1M72 23h1M79 23h1M131 23h1M138 23h1M72 24h1M79 24h1M131 24h1M138 24h1M72 25h1M79 25h1M131 25h1M138 25h1M72 26h1M79 26h1M131 26h1M138 26h1M72 27h1M79 27h1M131 27h1M138 27h1M72 28h1M79 28h1M131 28h1M138 28h1M72 29h1M79 29h1M131 29h1M138 29h1M72 30h1M79 30h1M131 30h1M138 30h1M72 31h1M79 31h1M131 31h1M138 31h1M72 32h1M79 32h1M131 32h1M138 32h1" />
<path stroke="#bfbabe" d="M73 6h6M132 6h6M48 7h10M73 7h6M132 7h6M145 7h9M48 8h15M73 8h6M132 8h6M145 8h15M196 8h5M48 9h17M73 9h6M132 9h6M145 9h17M196 9h5M48 10h18M73 10h6M132 10h6M145 10h18M196 10h5M48 11h19M73 11h6M132 11h6M145 11h5M157 11h6M196 11h5M48 12h5M61 12h6M132 12h6M145 12h5M158 12h5M196 12h5M48 13h5M62 13h5M132 13h6M145 13h5M158 13h6M196 13h5M48 14h5M62 14h6M73 14h6M84 14h5M98 14h5M132 14h6M145 14h5M158 14h6M193 14h14M48 15h5M62 15h6M73 15h6M85 15h5M97 15h5M112 15h9M132 15h6M145 15h5M158 15h5M175 15h10M193 15h14M48 16h5M62 16h6M73 16h6M86 16h4M96 16h5M110 16h13M132 16h6M145 16h5M158 16h5M173 16h14M193 16h14M48 17h5M62 17h5M73 17h6M86 17h5M96 17h4M109 17h15M132 17h6M145 17h5M157 17h6M172 17h16M193 17h14M48 18h5M61 18h6M73 18h6M87 18h5M95 18h5M108 18h6M120 18h5M132 18h6M145 18h17M171 18h6M183 18h6M196 18h5M48 19h19M73 19h6M88 19h4M94 19h5M108 19h5M121 19h4M132 19h6M145 19h15M171 19h5M184 19h5M196 19h5M48 20h18M73 20h6M89 20h9M108 20h5M121 20h5M132 20h6M145 20h16M171 20h5M184 20h6M196 20h5M48 21h17M73 21h6M89 21h8M107 21h5M121 21h5M132 21h6M145 21h18M170 21h6M185 21h5M196 21h5M48 22h15M73 22h6M90 22h7M107 22h19M132 22h6M145 22h5M158 22h6M170 22h5M185 22h5M196 22h5M48 23h10M73 23h6M90 23h6M107 23h19M132 23h6M145 23h5M159 23h5M170 23h5M185 23h5M196 23h5M48 24h5M73 24h6M90 24h7M107 24h20M132 24h6M145 24h5M159 24h6M170 24h5M185 24h5M196 24h5M48 25h5M73 25h6M89 25h9M107 25h20M132 25h6M145 25h5M159 25h6M170 25h6M185 25h5M196 25h5M48 26h5M73 26h6M88 26h10M108 26h4M132 26h6M145 26h5M159 26h6M171 26h5M184 26h6M196 26h5M48 27h5M73 27h6M87 27h5M94 27h5M108 27h5M132 27h6M145 27h5M159 27h5M171 27h5M184 27h5M196 27h5M48 28h5M73 28h6M87 28h4M95 28h5M108 28h6M124 28h2M132 28h6M145 28h5M158 28h6M171 28h6M183 28h6M196 28h5M48 29h5M73 29h6M86 29h5M96 29h5M109 29h17M132 29h6M145 29h19M172 29h16M197 29h10M48 30h5M73 30h6M85 30h5M97 30h4M110 30h16M132 30h6M145 30h18M173 30h14M197 30h10M48 31h5M73 31h6M84 31h5M97 31h5M112 31h14M132 31h6M145 31h16M175 31h10M198 31h9M48 32h5M73 32h6M84 32h5M98 32h5M132 32h6M145 32h10M202 32h5" />
<path stroke="rgba(255,191,0,0.18823529411764706)" d="M9 7h1" />
<path stroke="rgba(254,191,0,0.7058823529411765)" d="M10 7h1" />
<path stroke="rgba(255,192,0,0.43137254901960786)" d="M35 7h1M41 21h1" />
<path stroke="rgba(191,186,191,0.7843137254901961)" d="M47 7h1M144 7h1M47 8h1M144 8h1M47 9h1M144 9h1M47 10h1M144 10h1M47 11h1M144 11h1M47 12h1M144 12h1M47 13h1M144 13h1M47 14h1M144 14h1M177 14h1M47 15h1M144 15h1M47 16h1M144 16h1M47 17h1M144 17h1M47 18h1M114 18h1M144 18h1M47 19h1M144 19h1M47 20h1M144 20h1M47 21h1M144 21h1M47 22h1M89 22h1M144 22h1M47 23h1M144 23h1M47 24h1M144 24h1M47 25h1M144 25h1M47 26h1M144 26h1M47 27h1M144 27h1M47 28h1M144 28h1M47 29h1M144 29h1M47 30h1M144 30h1M47 31h1M144 31h1M47 32h1M144 32h1" />
<path stroke="rgba(192,186,190,0.9764705882352941)" d="M58 7h1M61 13h1M61 17h1M160 19h1M101 30h1" />
<path stroke="rgba(191,186,190,0.9176470588235294)" d="M59 7h1M160 8h1M60 18h1M126 22h1" />
<path stroke="rgba(191,186,190,0.8313725490196079)" d="M60 7h1" />
<path stroke="rgba(191,188,191,0.6431372549019608)" d="M61 7h1" />
<path stroke="rgba(191,186,191,0.40784313725490196)" d="M62 7h1M62 23h1" />
<path stroke="rgba(191,186,190,0.984313725490196)" d="M154 7h1M125 19h1M98 26h1M91 28h1M155 32h1" />
<path stroke="rgba(192,186,190,0.9372549019607843)" d="M155 7h1M112 21h1" />
<path stroke="rgba(192,186,190,0.8823529411764706)" d="M156 7h1M185 15h1M94 18h1M99 27h1M161 31h1M157 32h1" />
<path stroke="rgba(191,187,191,0.7450980392156863)" d="M157 7h1M83 14h1M67 18h1" />
<path stroke="rgba(193,188,191,0.5843137254901961)" d="M158 7h1M183 14h1M61 15h1" />
<path stroke="rgba(192,186,192,0.3058823529411765)" d="M159 7h1" />
<path stroke="rgba(198,198,198,0.03529411764705882)" d="M160 7h1M68 13h1M68 17h1M84 29h1" />
<path stroke="rgba(255,191,0,0.20392156862745098)" d="M8 8h1M5 29h1" />
<path stroke="rgba(254,191,0,0.7568627450980392)" d="M9 8h1M7 31h1" />
<path stroke="rgba(255,191,0,0.42745098039215684)" d="M36 8h1" />
<path stroke="rgba(191,186,190,0.9647058823529412)" d="M63 8h1M97 14h1M179 14h1M63 22h1" />
<path stroke="rgba(191,187,189,0.5333333333333333)" d="M64 8h1M192 14h1M192 15h1M95 16h1M192 16h1M192 17h1" />
<path stroke="rgba(182,182,182,0.027450980392156862)" d="M65 8h1M164 15h1M102 16h1M114 19h1M118 28h1" />
<path stroke="rgba(194,187,189,0.4117647058823529)" d="M161 8h1M121 28h1" />
<path stroke="rgba(191,185,189,0.5019607843137255)" d="M195 8h1M195 9h1M195 10h1M195 11h1M195 12h1M195 13h1M195 18h1M195 19h1M195 20h1M195 21h1M195 22h1M195 23h1M195 24h1M195 25h1M96 31h1" />
<path stroke="rgba(191,186,191,0.6274509803921569)" d="M201 8h1M201 9h1M201 10h1M201 11h1M201 12h1M201 13h1M201 18h1M201 19h1M201 20h1M163 21h1M201 21h1M201 22h1M201 23h1M201 24h1M201 25h1M188 29h1" />
<path stroke="rgba(255,191,0,0.1411764705882353)" d="M7 9h1" />
<path stroke="rgba(255,191,0,0.6980392156862745)" d="M8 9h1" />
<path stroke="rgba(254,191,0,0.9882352941176471)" d="M9 9h1M40 21h1M34 34h1" />
<path stroke="rgba(254,191,0,0.8823529411764706)" d="M36 9h1M4 19h1M24 39h1" />
<path stroke="rgba(255,192,0,0.3176470588235294)" d="M37 9h1M41 18h1" />
<path stroke="rgba(191,186,189,0.807843137254902)" d="M65 9h1M101 16h1M189 19h1M65 21h1M189 27h1M157 28h1M182 32h1" />
<path stroke="rgba(193,186,191,0.5686274509803921)" d="M162 9h1M162 18h1" />
<path stroke="rgba(255,200,0,0.054901960784313725)" d="M6 10h1M13 38h1" />
<path stroke="rgba(254,192,0,0.5607843137254902)" d="M7 10h1M4 17h1" />
<path stroke="rgba(254,191,0,0.9647058823529412)" d="M8 10h1M33 35h1" />
<path stroke="rgba(254,192,0,0.8588235294117647)" d="M37 10h1M40 24h1" />
<path stroke="rgba(192,186,190,0.7568627450980392)" d="M66 10h1M170 19h1M66 20h1M126 21h1" />
<path stroke="rgba(255,255,255,0.00392156862745098)" d="M67 10h1M111 14h1M67 20h1M163 20h1M154 22h1M127 23h1M98 24h1M154 28h1M108 30h1" />
<path stroke="rgba(192,185,192,0.28627450980392155)" d="M163 10h1M178 18h1M124 32h1" />
<path stroke="rgba(254,192,0,0.3215686274509804)" d="M6 11h1" />
<path stroke="rgba(254,191,0,0.6901960784313725)" d="M38 11h1" />
<path stroke="rgba(255,212,0,0.023529411764705882)" d="M39 11h1M41 15h1M4 28h1" />
<path stroke="rgba(192,187,192,0.35294117647058826)" d="M67 11h1M97 22h1M83 31h1" />
<path stroke="rgba(191,186,190,0.8)" d="M150 11h1M53 12h1M150 12h1M53 13h1M150 13h1M53 14h1M150 14h1M182 14h1M53 15h1M150 15h1M53 16h1M150 16h1M53 17h1M150 17h1M53 18h1M150 22h1M150 23h1M53 24h1M150 24h1M53 25h1M150 25h1M53 26h1M150 26h1M53 27h1M150 27h1M53 28h1M150 28h1M53 29h1M53 30h1M53 31h1M53 32h1" />
<path stroke="rgba(170,170,170,0.023529411764705882)" d="M154 11h1M156 12h1M154 17h1" />
<path stroke="rgba(191,191,191,0.18823529411764706)" d="M155 11h1M165 25h1" />
<path stroke="rgba(191,186,191,0.7137254901960784)" d="M156 11h1M196 30h1" />
<path stroke="rgba(192,186,190,0.7254901960784313)" d="M163 11h1" />
<path stroke="rgba(254,198,0,0.10588235294117647)" d="M5 12h1" />
<path stroke="rgba(255,192,0,0.6549019607843137)" d="M6 12h1M4 24h1" />
<path stroke="#ffc014" d="M9 12h1" />
<path stroke="#ffc75e" d="M10 12h7M28 12h7" />
<path stroke="#ffc655" d="M17 12h1" />
<path stroke="#ffc12c" d="M18 12h1" />
<path stroke="#ffc446" d="M27 12h1" />
<path stroke="#ffc345" d="M35 12h1" />
<path stroke="#ffbf08" d="M36 12h1" />
<path stroke="rgba(255,193,0,0.3254901960784314)" d="M39 12h1M30 38h1" />
<path stroke="rgba(204,204,204,0.0196078431372549)" d="M57 12h1M164 12h1M95 15h1M156 16h1M57 18h1M88 22h1M123 27h1M117 28h1M188 30h1M161 32h1" />
<path stroke="rgba(199,186,199,0.1450980392156863)" d="M58 12h1M82 32h1" />
<path stroke="rgba(194,187,189,0.42745098039215684)" d="M59 12h1M59 18h1" />
<path stroke="rgba(192,186,190,0.9215686274509803)" d="M60 12h1M59 23h1" />
<path stroke="rgba(192,186,190,0.7490196078431373)" d="M67 12h1M93 19h1M107 27h1" />
<path stroke="rgba(192,186,190,0.8666666666666667)" d="M157 12h1M112 26h1" />
<path stroke="rgba(191,186,190,0.9725490196078431)" d="M163 12h1M180 32h1" />
<path stroke="#ffc33e" d="M9 13h1" />
<path stroke="#fff0de" d="M10 13h7M28 13h7" />
<path stroke="#ffe8cb" d="M17 13h1" />
<path stroke="#ffcc72" d="M18 13h1" />
<path stroke="#ffdcaa" d="M27 13h1" />
<path stroke="#ffdaa7" d="M35 13h1" />
<path stroke="#ffc022" d="M36 13h1" />
<path stroke="rgba(255,191,0,0.7294117647058823)" d="M39 13h1M25 39h1" />
<path stroke="rgba(255,191,0,0.0784313725490196)" d="M40 13h1" />
<path stroke="rgba(199,192,199,0.1607843137254902)" d="M60 13h1M60 17h1M165 26h1" />
<path stroke="rgba(191,186,190,0.9803921568627451)" d="M67 13h1M67 17h1M92 19h1M58 23h1" />
<path stroke="rgba(192,185,192,0.5450980392156862)" d="M157 13h1M157 15h1" />
<path stroke="rgba(198,198,198,0.10588235294117647)" d="M164 13h1M155 28h1M196 31h1" />
<path stroke="rgba(254,191,0,0.6)" d="M5 14h1" />
<path stroke="#ffc449" d="M9 14h1M9 15h1M9 16h1M9 17h1M9 18h1" />
<path stroke="#ffffff" d="M10 14h7M28 14h7M10 15h7M28 15h7M10 16h7M28 16h7M10 17h7M28 17h7M10 18h7M28 18h7" />
<path stroke="#fff5ea" d="M17 14h1M17 15h1M17 16h1M17 17h1M17 18h1M10 19h7M28 19h7" />
<path stroke="#ffd085" d="M18 14h1M18 15h1M18 16h1M18 17h1M18 18h1M10 20h7M28 20h7" />
<path stroke="#ffe5c5" d="M27 14h1M27 15h1M27 16h1M27 17h1M27 18h1" />
<path stroke="#ffe4c0" d="M35 14h1M35 15h1M35 16h1M35 17h1M35 18h1" />
<path stroke="#ffc129" d="M36 14h1M36 15h1M36 16h1M36 17h1M36 18h1" />
<path stroke="rgba(254,191,0,0.8941176470588236)" d="M39 14h1M5 15h1M8 32h1" />
<path stroke="rgba(255,193,0,0.29411764705882354)" d="M40 14h1" />
<path stroke="rgba(193,187,190,0.6941176470588235)" d="M61 14h1M156 17h1" />
<path stroke="rgba(195,195,195,0.13333333333333333)" d="M68 14h1M164 14h1M126 27h1" />
<path stroke="rgba(255,255,255,0.00784313725490196)" d="M82 14h1M174 14h1M171 16h1M171 30h1M174 32h1" />
<path stroke="rgba(192,188,189,0.7019607843137254)" d="M89 14h1" />
<path stroke="rgba(191,191,191,0.1568627450980392)" d="M96 14h1M85 28h1" />
<path stroke="rgba(191,185,191,0.32941176470588235)" d="M103 14h1M183 20h1M202 28h1" />
<path stroke="rgba(192,188,188,0.27058823529411763)" d="M112 14h1" />
<path stroke="rgba(191,187,189,0.5490196078431373)" d="M113 14h1M88 21h1" />
<path stroke="rgba(191,185,191,0.7764705882352941)" d="M114 14h1M91 17h1M157 22h1" />
<path stroke="rgba(192,186,190,0.8901960784313725)" d="M115 14h1M175 23h1M185 31h1" />
<path stroke="rgba(192,186,190,0.9607843137254902)" d="M116 14h1M89 24h1" />
<path stroke="rgba(192,186,190,0.9686274509803922)" d="M117 14h1M180 14h1M179 32h1M201 32h1" />
<path stroke="rgba(191,186,190,0.8862745098039215)" d="M118 14h1M184 22h1M184 24h1M119 32h1" />
<path stroke="rgba(191,187,191,0.7529411764705882)" d="M119 14h1" />
<path stroke="rgba(191,185,189,0.48627450980392156)" d="M120 14h1" />
<path stroke="rgba(194,194,194,0.14901960784313725)" d="M121 14h1M98 21h1" />
<path stroke="rgba(194,185,191,0.44313725490196076)" d="M157 14h1M89 23h1M101 29h1" />
<path stroke="rgba(190,187,190,0.29411764705882354)" d="M175 14h1M189 18h1M87 20h1M164 29h1" />
<path stroke="rgba(191,187,189,0.5647058823529412)" d="M176 14h1M171 17h1M159 32h1" />
<path stroke="rgba(191,186,190,0.8941176470588236)" d="M178 14h1" />
<path stroke="rgba(191,186,190,0.9019607843137255)" d="M181 14h1M178 32h1" />
<path stroke="rgba(192,189,192,0.3215686274509804)" d="M184 14h1M169 21h1M169 25h1M183 26h1M124 27h1" />
<path stroke="rgba(191,191,191,0.01568627450980392)" d="M185 14h1M188 16h1M85 18h1M185 32h1" />
<path stroke="rgba(191,186,190,0.9254901960784314)" d="M207 14h1M207 15h1M207 16h1M207 17h1M87 19h1" />
<path stroke="rgba(255,192,0,0.5568627450980392)" d="M40 15h1M26 39h1" />
<path stroke="rgba(193,188,193,0.19607843137254902)" d="M68 15h1" />
<path stroke="rgba(203,193,203,0.09803921568627451)" d="M83 15h1M116 28h1" />
<path stroke="rgba(192,186,190,0.9137254901960784)" d="M84 15h1" />
<path stroke="rgba(190,185,190,0.4)" d="M90 15h1M158 25h1" />
<path stroke="rgba(192,187,190,0.803921568627451)" d="M96 15h1" />
<path stroke="rgba(191,186,191,0.5803921568627451)" d="M102 15h1" />
<path stroke="rgba(191,187,191,0.2980392156862745)" d="M110 15h1M189 28h1M175 32h1" />
<path stroke="rgba(191,187,189,0.8392156862745098)" d="M111 15h1M60 23h1" />
<path stroke="rgba(191,186,190,0.9882352941176471)" d="M121 15h1M126 23h1M201 28h1M96 30h1M117 32h1" />
<path stroke="rgba(192,186,189,0.6235294117647059)" d="M122 15h1M87 26h1" />
<path stroke="rgba(191,186,190,0.996078431372549)" d="M163 15h1M85 16h1M88 20h1M170 20h1M170 26h1M196 29h1" />
<path stroke="rgba(192,186,189,0.3333333333333333)" d="M173 15h1" />
<path stroke="rgba(191,185,190,0.8627450980392157)" d="M174 15h1M176 19h1M92 27h1" />
<path stroke="rgba(191,188,191,0.3764705882352941)" d="M186 15h1" />
<path stroke="rgba(255,192,0,0.3333333333333333)" d="M4 16h1" />
<path stroke="rgba(191,186,191,0.6980392156862745)" d="M61 16h1M100 28h1" />
<path stroke="rgba(193,185,193,0.12941176470588237)" d="M68 16h1M90 31h1" />
<path stroke="rgba(189,189,189,0.27450980392156865)" d="M84 16h1M156 22h1M160 32h1" />
<path stroke="rgba(191,186,190,0.9568627450980393)" d="M90 16h1M86 28h1" />
<path stroke="rgba(189,189,189,0.13725490196078433)" d="M91 16h1M126 19h1" />
<path stroke="rgba(190,188,190,0.5568627450980392)" d="M109 16h1" />
<path stroke="rgba(192,186,190,0.8509803921568627)" d="M123 16h1M124 17h1M197 31h1" />
<path stroke="rgba(191,184,191,0.1411764705882353)" d="M124 16h1M101 17h1M58 18h1M126 28h1M126 29h1M126 30h1M126 31h1" />
<path stroke="rgba(191,187,189,0.8549019607843137)" d="M157 16h1" />
<path stroke="rgba(192,186,190,0.788235294117647)" d="M163 16h1M182 28h1" />
<path stroke="rgba(191,186,191,0.596078431372549)" d="M172 16h1M99 19h1" />
<path stroke="rgba(190,187,190,0.6509803921568628)" d="M187 16h1" />
<path stroke="rgba(190,186,190,0.5254901960784314)" d="M85 17h1M190 23h1" />
<path stroke="rgba(170,170,170,0.011764705882352941)" d="M92 17h1M113 21h1M91 30h1M96 32h1" />
<path stroke="rgba(189,185,189,0.24313725490196078)" d="M94 17h1" />
<path stroke="rgba(192,186,190,0.9921568627450981)" d="M95 17h1M107 20h1M184 21h1M184 25h1M107 26h1M164 27h1" />
<path stroke="rgba(191,187,190,0.9490196078431372)" d="M100 17h1M89 31h1" />
<path stroke="rgba(193,187,191,0.5215686274509804)" d="M108 17h1M158 24h1M113 32h1" />
<path stroke="rgba(182,182,182,0.054901960784313725)" d="M125 17h1M157 27h1M165 27h1M177 27h1" />
<path stroke="rgba(188,188,188,0.1803921568627451)" d="M155 17h1" />
<path stroke="rgba(191,185,191,0.34509803921568627)" d="M163 17h1M173 31h1" />
<path stroke="rgba(193,188,190,0.615686274509804)" d="M188 17h1M172 30h1" />
<path stroke="rgba(254,191,0,0.7372549019607844)" d="M4 18h1" />
<path stroke="rgba(192,186,190,0.7647058823529411)" d="M86 18h1M164 28h1M121 32h1" />
<path stroke="rgba(192,188,192,0.4823529411764706)" d="M92 18h1M106 23h1M169 23h1" />
<path stroke="rgba(187,187,187,0.058823529411764705)" d="M93 18h1M177 19h1M94 29h1M103 31h1" />
<path stroke="rgba(193,187,193,0.3411764705882353)" d="M100 18h1M195 28h1" />
<path stroke="rgba(192,192,192,0.2235294117647059)" d="M107 18h1M120 28h1" />
<path stroke="rgba(190,190,190,0.2784313725490196)" d="M115 18h1M110 31h1" />
<path stroke="rgba(196,196,196,0.050980392156862744)" d="M116 18h1M179 18h1M157 23h1" />
<path stroke="rgba(204,204,204,0.0392156862745098)" d="M117 18h1M183 21h1M87 25h1M183 25h1M182 27h1M180 28h1" />
<path stroke="rgba(191,191,191,0.2823529411764706)" d="M118 18h1M178 28h1" />
<path stroke="rgba(192,186,190,0.8431372549019608)" d="M119 18h1M184 23h1" />
<path stroke="rgba(190,187,190,0.6196078431372549)" d="M125 18h1" />
<path stroke="rgba(190,186,190,0.24705882352941178)" d="M170 18h1M113 20h1" />
<path stroke="rgba(191,186,189,0.8235294117647058)" d="M177 18h1M113 19h1M85 29h1" />
<path stroke="rgba(185,185,185,0.043137254901960784)" d="M180 18h1M182 19h1M127 24h1M197 32h1" />
<path stroke="rgba(189,185,189,0.25882352941176473)" d="M181 18h1" />
<path stroke="rgba(192,187,190,0.796078431372549)" d="M182 18h1" />
<path stroke="#ffc341" d="M9 19h1" />
<path stroke="#ffedd6" d="M17 19h1" />
<path stroke="#ffcd79" d="M18 19h1M17 20h1" />
<path stroke="#ffdfb4" d="M27 19h1" />
<path stroke="#ffdeb0" d="M35 19h1" />
<path stroke="#ffc024" d="M36 19h1" />
<path stroke="rgba(254,191,0,0.9490196078431372)" d="M40 19h1M4 20h1" />
<path stroke="rgba(194,186,189,0.34901960784313724)" d="M67 19h1" />
<path stroke="rgba(191,182,191,0.10980392156862745)" d="M86 19h1" />
<path stroke="rgba(192,186,190,0.7411764705882353)" d="M107 19h1" />
<path stroke="rgba(194,182,194,0.08235294117647059)" d="M119 19h1M169 20h1M97 23h1M169 26h1" />
<path stroke="rgba(191,186,190,0.9098039215686274)" d="M120 19h1" />
<path stroke="rgba(191,188,191,0.3607843137254902)" d="M161 19h1M190 21h1M164 22h1" />
<path stroke="rgba(192,186,190,0.8352941176470589)" d="M183 19h1M88 25h1" />
<path stroke="#ffc021" d="M9 20h1" />
<path stroke="#ffc342" d="M18 20h1" />
<path stroke="#ffc964" d="M27 20h1" />
<path stroke="#ffc862" d="M35 20h1" />
<path stroke="#ffbf10" d="M36 20h1" />
<path stroke="rgba(255,193,0,0.4196078431372549)" d="M41 20h1" />
<path stroke="rgba(192,185,190,0.8196078431372549)" d="M98 20h1M164 23h1M111 31h1" />
<path stroke="rgba(191,191,191,0.03137254901960784)" d="M99 20h1M65 22h1" />
<path stroke="rgba(201,201,201,0.07450980392156863)" d="M106 20h1M176 25h1" />
<path stroke="rgba(193,187,191,0.49019607843137253)" d="M120 20h1" />
<path stroke="rgba(192,188,192,0.4980392156862745)" d="M126 20h1" />
<path stroke="rgba(191,186,190,0.9333333333333333)" d="M161 20h1M175 22h1M175 24h1" />
<path stroke="rgba(192,186,192,0.45098039215686275)" d="M162 20h1M195 27h1" />
<path stroke="rgba(193,185,193,0.37254901960784315)" d="M176 20h1" />
<path stroke="rgba(187,187,187,0.11764705882352941)" d="M190 20h1" />
<path stroke="rgba(195,180,195,0.06666666666666667)" d="M66 21h1" />
<path stroke="rgba(192,186,190,0.9529411764705882)" d="M97 21h1M83 32h1" />
<path stroke="rgba(191,188,191,0.3137254901960784)" d="M106 21h1" />
<path stroke="rgba(192,186,192,0.2901960784313726)" d="M120 21h1M115 28h1" />
<path stroke="rgba(191,191,191,0.0784313725490196)" d="M176 21h1M165 24h1M106 26h1" />
<path stroke="rgba(254,191,0,0.9254901960784314)" d="M4 22h1" />
<path stroke="rgba(254,191,0,0.40784313725490196)" d="M41 22h1" />
<path stroke="rgba(193,186,191,0.5372549019607843)" d="M64 22h1M108 29h1" />
<path stroke="rgba(193,188,193,0.4196078431372549)" d="M106 22h1M169 22h1M106 24h1M169 24h1M113 27h1M198 32h1" />
<path stroke="rgba(190,188,190,0.4627450980392157)" d="M190 22h1M190 24h1" />
<path stroke="rgba(254,191,0,0.8352941176470589)" d="M4 23h1" />
<path stroke="rgba(193,185,190,0.6470588235294118)" d="M61 23h1" />
<path stroke="rgba(192,186,190,0.9450980392156862)" d="M96 23h1M123 28h1M116 32h1M118 32h1" />
<path stroke="rgba(192,186,190,0.8745098039215686)" d="M158 23h1" />
<path stroke="rgba(255,193,0,0.2784313725490196)" d="M41 24h1" />
<path stroke="rgba(195,189,195,0.16862745098039217)" d="M88 24h1" />
<path stroke="rgba(192,185,190,0.7176470588235294)" d="M97 24h1" />
<path stroke="rgba(254,192,0,0.4627450980392157)" d="M4 25h1M10 35h1M18 39h1" />
<path stroke="rgba(191,187,189,0.47058823529411764)" d="M98 25h1" />
<path stroke="rgba(192,188,192,0.3176470588235294)" d="M106 25h1" />
<path stroke="rgba(191,191,191,0.047058823529411764)" d="M127 25h1M179 28h1M203 28h1" />
<path stroke="rgba(194,186,189,0.36470588235294116)" d="M190 25h1" />
<path stroke="rgba(255,191,0,0.6627450980392157)" d="M40 26h1" />
<path stroke="rgba(254,198,0,0.07058823529411765)" d="M41 26h1M16 39h1" />
<path stroke="rgba(189,189,189,0.22745098039215686)" d="M99 26h1" />
<path stroke="rgba(192,185,192,0.5294117647058824)" d="M158 26h1M163 30h1" />
<path stroke="rgba(192,187,192,0.3686274509803922)" d="M176 26h1M86 27h1M89 32h1" />
<path stroke="rgba(189,189,189,0.12156862745098039)" d="M190 26h1M195 29h1" />
<path stroke="rgba(190,186,190,0.49411764705882355)" d="M195 26h1M91 29h1" />
<path stroke="rgba(190,187,190,0.6352941176470588)" d="M201 26h1" />
<path stroke="rgba(255,191,0,0.7686274509803922)" d="M5 27h1M16 38h1" />
<path stroke="rgba(254,192,0,0.9372549019607843)" d="M39 27h1M30 37h1" />
<path stroke="rgba(255,191,0,0.4392156862745098)" d="M40 27h1" />
<path stroke="rgba(191,188,191,0.4235294117647059)" d="M93 27h1" />
<path stroke="rgba(184,184,184,0.07058823529411765)" d="M100 27h1" />
<path stroke="rgba(191,187,191,0.7372549019607844)" d="M125 27h1M201 27h1M114 32h1M158 32h1" />
<path stroke="rgba(191,186,190,0.8784313725490196)" d="M158 27h1M95 29h1M115 32h1" />
<path stroke="rgba(191,187,191,0.7607843137254902)" d="M170 27h1" />
<path stroke="rgba(192,186,190,0.8588235294117647)" d="M176 27h1" />
<path stroke="rgba(192,186,190,0.8274509803921568)" d="M183 27h1M120 32h1" />
<path stroke="rgba(254,191,0,0.4745098039215686)" d="M5 28h1" />
<path stroke="rgba(190,185,190,0.21568627450980393)" d="M92 28h1" />
<path stroke="rgba(191,188,191,0.6588235294117647)" d="M94 28h1" />
<path stroke="rgba(190,190,190,0.23137254901960785)" d="M107 28h1M95 30h1M112 32h1" />
<path stroke="rgba(193,187,190,0.6627450980392157)" d="M114 28h1M122 28h1M187 30h1" />
<path stroke="rgba(191,191,191,0.09411764705882353)" d="M119 28h1" />
<path stroke="rgba(192,185,192,0.30196078431372547)" d="M156 28h1" />
<path stroke="rgba(191,187,191,0.25098039215686274)" d="M170 28h1" />
<path stroke="rgba(191,186,190,0.8156862745098039)" d="M177 28h1" />
<path stroke="rgba(192,184,188,0.2549019607843137)" d="M181 28h1" />
<path stroke="rgba(254,192,0,0.8431372549019608)" d="M6 29h1" />
<path stroke="rgba(255,191,0,0.01568627450980392)" d="M40 29h1M8 34h1M9 35h1" />
<path stroke="rgba(192,187,192,0.5764705882352941)" d="M171 29h1" />
<path stroke="rgba(191,186,191,0.39215686274509803)" d="M207 29h1M207 30h1M207 31h1M207 32h1" />
<path stroke="rgba(254,196,0,0.050980392156862744)" d="M5 30h1" />
<path stroke="rgba(255,191,0,0.5019607843137255)" d="M6 30h1" />
<path stroke="rgba(254,191,0,0.9607843137254902)" d="M7 30h1M13 36h1" />
<path stroke="rgba(255,195,0,0.16862745098039217)" d="M39 30h1" />
<path stroke="rgba(192,187,189,0.6078431372549019)" d="M84 30h1" />
<path stroke="rgba(192,186,190,0.7725490196078432)" d="M90 30h1" />
<path stroke="rgba(192,192,192,0.20784313725490197)" d="M102 30h1" />
<path stroke="rgba(192,185,192,0.5607843137254902)" d="M109 30h1" />
<path stroke="rgba(255,192,0,0.19215686274509805)" d="M6 31h1M36 34h1M12 37h1" />
<path stroke="rgba(191,186,190,0.8705882352941177)" d="M102 31h1M174 31h1" />
<path stroke="rgba(193,187,193,0.3568627450980392)" d="M162 31h1" />
<path stroke="rgba(193,185,193,0.38823529411764707)" d="M186 31h1" />
<path stroke="rgba(255,191,0,0.34901960784313724)" d="M7 32h1" />
<path stroke="rgba(255,192,0,0.6039215686274509)" d="M37 32h1" />
<path stroke="rgba(255,191,0,0.047058823529411764)" d="M38 32h1" />
<path stroke="rgba(191,186,191,0.7686274509803922)" d="M97 32h1" />
<path stroke="rgba(191,185,191,0.6745098039215687)" d="M103 32h1" />
<path stroke="rgba(193,185,190,0.6313725490196078)" d="M122 32h1" />
<path stroke="rgba(193,185,191,0.4588235294117647)" d="M123 32h1" />
<path stroke="rgba(193,193,193,0.11372549019607843)" d="M125 32h1" />
<path stroke="rgba(191,187,190,0.9411764705882353)" d="M156 32h1" />
<path stroke="rgba(190,185,190,0.5725490196078431)" d="M176 32h1" />
<path stroke="rgba(191,186,191,0.792156862745098)" d="M177 32h1" />
<path stroke="rgba(192,185,190,0.9058823529411765)" d="M181 32h1" />
<path stroke="rgba(192,187,192,0.592156862745098)" d="M183 32h1" />
<path stroke="rgba(190,187,190,0.3254901960784314)" d="M184 32h1" />
<path stroke="rgba(191,187,191,0.7215686274509804)" d="M199 32h1" />
<path stroke="rgba(192,187,190,0.8980392156862745)" d="M200 32h1" />
<path stroke="rgba(254,198,0,0.03529411764705882)" d="M7 33h1" />
<path stroke="rgba(255,191,0,0.47058823529411764)" d="M8 33h1" />
<path stroke="rgba(254,192,0,0.7176470588235294)" d="M36 33h1" />
<path stroke="rgba(255,195,0,0.13333333333333333)" d="M37 33h1" />
<path stroke="rgba(255,191,0,0.5372549019607843)" d="M9 34h1" />
<path stroke="rgba(254,192,0,0.7647058823529411)" d="M35 34h1" />
<path stroke="rgba(254,191,0,0.7098039215686275)" d="M34 35h1" />
<path stroke="rgba(255,193,0,0.21176470588235294)" d="M35 35h1M14 38h1" />
<path stroke="rgba(255,218,0,0.027450980392156862)" d="M10 36h1M15 39h1" />
<path stroke="rgba(254,193,0,0.3411764705882353)" d="M11 36h1M27 39h1" />
<path stroke="rgba(255,191,0,0.7529411764705882)" d="M12 36h1" />
<path stroke="rgba(255,191,0,0.5686274509803921)" d="M33 36h1" />
<path stroke="rgba(255,194,0,0.14901960784313725)" d="M34 36h1" />
<path stroke="rgba(254,192,0,0.5137254901960784)" d="M13 37h1" />
<path stroke="rgba(254,191,0,0.8509803921568627)" d="M14 37h1" />
<path stroke="rgba(255,192,0,0.6666666666666666)" d="M31 37h1" />
<path stroke="rgba(255,204,0,0.058823529411764705)" d="M33 37h1" />
<path stroke="rgba(255,192,0,0.47843137254901963)" d="M15 38h1" />
<path stroke="rgba(254,191,0,0.9764705882352941)" d="M17 38h1M22 39h1" />
<path stroke="rgba(254,191,0,0.9019607843137255)" d="M28 38h1" />
<path stroke="rgba(254,191,0,0.615686274509804)" d="M29 38h1" />
<path stroke="rgba(254,193,0,0.11372549019607843)" d="M31 38h1" />
<path stroke="rgba(255,191,0,0.2196078431372549)" d="M17 39h1" />
<path stroke="rgba(254,191,0,0.6470588235294118)" d="M19 39h1" />
<path stroke="rgba(254,191,0,0.8313725490196079)" d="M20 39h1" />
<path stroke="rgba(254,191,0,0.9568627450980393)" d="M23 39h1" />
<path stroke="rgba(255,195,0,0.11764705882352941)" d="M28 39h1" />
</svg>